<?xml version="1.0" encoding="UTF-8"?>
<svg xmlns="http://www.w3.org/2000/svg" version="1.1" height="80" width="80">
 <defs>
  <linearGradient id="hicg_overlay_grad" gradientUnits="userSpaceOnUse" x1="39.9995" y1="5.1816" x2="39.9995" y2="58.8019">
   <stop offset="0" style="stop-color:#FFFFFF"/>
   <stop offset="1" style="stop-color:#000000"/>
  </linearGradient>
  <filter id="hicg_drop_shadow">
    <feOffset in="SourceAlpha" dx="0" dy="4"/>
    <feGaussianBlur stdDeviation="4"/>
	<feColorMatrix type="matrix" values="1 0 0 0 0  0 1 0 0 0  0 0 1 0 0  0 0 0 0.5 0" result="shadow"/>
    <feBlend in="SourceGraphic" in2="shadow" mode="normal"/>
  </filter>
 </defs>
 <g>
  <path id="hicg_background" fill="#d8ba00" d="M79,40c0,28.893-10.105,39-39,39S1,68.893,1,40C1,11.106,11.105,1,40,1S79,11.106,79,40z"/>
  <path id="hicg_highlight" fill="#fff" opacity="0.25" d="M39.999,1C11.105,1,1,11.106,1,40c0,28.893,10.105,39,38.999,39   C68.896,79,79,68.893,79,40C79,11.106,68.896,1,39.999,1z M39.999,78.025C11.57,78.025,1.976,68.43,1.976,40   c0-28.429,9.595-38.024,38.023-38.024c28.43,0,38.024,9.596,38.024,38.024C78.023,68.43,68.429,78.025,39.999,78.025z"/>
  <path id="hicg_overlay" opacity="0.4" fill="url(#hicg_overlay_grad)" d="M78.977,40c0,28.893-10.1,39-38.977,39S1.023,68.893,1.023,40c0-28.894,10.1-39,38.977-39S78.977,11.106,78.977,40z"/>
 </g>
<g xmlns:inkscape="http://www.inkscape.org/namespaces/inkscape" xmlns:sodipodi="http://sodipodi.sourceforge.net/DTD/sodipodi-0.dtd" xmlns:xlink="http://www.w3.org/1999/xlink" xmlns:rdf="http://www.w3.org/1999/02/22-rdf-syntax-ns#" xmlns:cc="http://creativecommons.org/ns#" xmlns:dc="http://purl.org/dc/elements/1.1/" transform="translate(12, 12) scale(1.16667)" filter="url(#hicg_drop_shadow)">
  <defs xmlns="http://www.w3.org/2000/svg" xmlns:inkscape="http://www.inkscape.org/namespaces/inkscape" xmlns:sodipodi="http://sodipodi.sourceforge.net/DTD/sodipodi-0.dtd" xmlns:xlink="http://www.w3.org/1999/xlink" id="defs2864">
    <linearGradient id="linearGradient5299">
      <stop style="stop-color:#e99600;stop-opacity:1;" offset="0" id="stop5301"/>
      <stop style="stop-color:#d8bc00;stop-opacity:1;" offset="1" id="stop5303"/>
    </linearGradient>
    <linearGradient inkscape:collect="always" id="linearGradient2921">
      <stop style="stop-color:#f5f5f5;stop-opacity:1" offset="0" id="stop2923"/>
      <stop style="stop-color:#dcdcdc;stop-opacity:1" offset="1" id="stop2925"/>
    </linearGradient>
    <inkscape:path-effect effect="spiro" id="path-effect2906" is_visible="true"/>
    <inkscape:perspective sodipodi:type="inkscape:persp3d" inkscape:vp_x="0 : 24 : 1" inkscape:vp_y="0 : 1000 : 0" inkscape:vp_z="48 : 24 : 1" inkscape:persp3d-origin="24 : 16 : 1" id="perspective2870"/>
    <inkscape:perspective id="perspective2917" inkscape:persp3d-origin="80.000099 : 53.333399 : 1" inkscape:vp_z="160.0002 : 80.000099 : 1" inkscape:vp_y="0 : 1000 : 0" inkscape:vp_x="0 : 80.000099 : 1" sodipodi:type="inkscape:persp3d"/>
    <linearGradient inkscape:collect="always" xlink:href="#linearGradient2921" id="linearGradient2927" x1="42.57143" y1="35" x2="2.3463874" y2="32.18837" gradientUnits="userSpaceOnUse" gradientTransform="matrix(1.00052, 0, 0, 0.862811, -2.78007, -0.722032)"/>
    <inkscape:perspective id="perspective2938" inkscape:persp3d-origin="80.000099 : 53.333399 : 1" inkscape:vp_z="160.0002 : 80.000099 : 1" inkscape:vp_y="0 : 1000 : 0" inkscape:vp_x="0 : 80.000099 : 1" sodipodi:type="inkscape:persp3d"/>
    <inkscape:perspective id="perspective2950" inkscape:persp3d-origin="0.5 : 0.33333333 : 1" inkscape:vp_z="1 : 0.5 : 1" inkscape:vp_y="0 : 1000 : 0" inkscape:vp_x="0 : 0.5 : 1" sodipodi:type="inkscape:persp3d"/>
    <linearGradient inkscape:collect="always" xlink:href="#linearGradient2921-9" id="linearGradient2927-4" x1="42.57143" y1="35" x2="2.3463874" y2="32.18837" gradientUnits="userSpaceOnUse"/>
    <linearGradient inkscape:collect="always" id="linearGradient2921-9">
      <stop style="stop-color:#f5f5f5;stop-opacity:1" offset="0" id="stop2923-0"/>
      <stop style="stop-color:#dcdcdc;stop-opacity:1" offset="1" id="stop2925-5"/>
    </linearGradient>
    <inkscape:perspective id="perspective2989" inkscape:persp3d-origin="0.5 : 0.33333333 : 1" inkscape:vp_z="1 : 0.5 : 1" inkscape:vp_y="0 : 1000 : 0" inkscape:vp_x="0 : 0.5 : 1" sodipodi:type="inkscape:persp3d"/>
    <linearGradient inkscape:collect="always" xlink:href="#linearGradient2921-7" id="linearGradient2927-6" x1="42.57143" y1="35" x2="2.3463874" y2="32.18837" gradientUnits="userSpaceOnUse"/>
    <linearGradient inkscape:collect="always" id="linearGradient2921-7">
      <stop style="stop-color:#f5f5f5;stop-opacity:1" offset="0" id="stop2923-4"/>
      <stop style="stop-color:#dcdcdc;stop-opacity:1" offset="1" id="stop2925-3"/>
    </linearGradient>
    <linearGradient gradientTransform="matrix(1.10973, 0, 0, 1.65739, -1.41245, -31.6842)" y2="32.18837" x2="2.3463874" y1="35" x1="42.57143" gradientUnits="userSpaceOnUse" id="linearGradient2998" xlink:href="#linearGradient2921-7" inkscape:collect="always"/>
    <radialGradient inkscape:collect="always" xlink:href="#linearGradient5299" id="radialGradient3659" cx="9" cy="6.2857141" fx="9" fy="6.2857141" r="17.714285" gradientUnits="userSpaceOnUse"/>
    <filter inkscape:collect="always" id="filter3687">
      <feGaussianBlur inkscape:collect="always" stdDeviation="0.53999999" id="feGaussianBlur3689"/>
    </filter>
    <inkscape:perspective id="perspective3727" inkscape:persp3d-origin="0.5 : 0.33333333 : 1" inkscape:vp_z="1 : 0.5 : 1" inkscape:vp_y="0 : 1000 : 0" inkscape:vp_x="0 : 0.5 : 1" sodipodi:type="inkscape:persp3d"/>
    <linearGradient inkscape:collect="always" xlink:href="#linearGradient2921-0" id="linearGradient2927-7" x1="42.57143" y1="35" x2="2.3463874" y2="32.18837" gradientUnits="userSpaceOnUse" gradientTransform="matrix(1.00052, 0, 0, 0.862811, -2.78007, -0.722032)"/>
    <linearGradient inkscape:collect="always" id="linearGradient2921-0">
      <stop style="stop-color:#f5f5f5;stop-opacity:1" offset="0" id="stop2923-6"/>
      <stop style="stop-color:#dcdcdc;stop-opacity:1" offset="1" id="stop2925-9"/>
    </linearGradient>
    <linearGradient y2="32.18837" x2="2.3463874" y1="35" x1="42.57143" gradientTransform="matrix(1.00052, 0, 0, 0.862811, 19.8191, 13.8636)" gradientUnits="userSpaceOnUse" id="linearGradient3736" xlink:href="#linearGradient2921-0" inkscape:collect="always"/>
    <linearGradient inkscape:collect="always" xlink:href="#linearGradient2921" id="linearGradient3759" gradientUnits="userSpaceOnUse" gradientTransform="matrix(1.08434, 0, 0, 0.905631, -1.7427, 0.904876)" x1="42.57143" y1="35" x2="2.3463874" y2="32.18837"/>
  </defs>
  <sodipodi:namedview xmlns:sodipodi="http://sodipodi.sourceforge.net/DTD/sodipodi-0.dtd" xmlns:inkscape="http://www.inkscape.org/namespaces/inkscape" id="base" pagecolor="#ffffff" bordercolor="#666666" borderopacity="1.0" inkscape:pageopacity="0.0" inkscape:pageshadow="2" inkscape:zoom="5.6568542" inkscape:cx="-12.467884" inkscape:cy="35.449528" inkscape:current-layer="layer1" showgrid="true" inkscape:grid-bbox="true" inkscape:document-units="px" inkscape:window-width="1366" inkscape:window-height="718" inkscape:window-x="0" inkscape:window-y="25" inkscape:window-maximized="1"/>
  <metadata xmlns="http://www.w3.org/2000/svg" xmlns:rdf="http://www.w3.org/1999/02/22-rdf-syntax-ns#" xmlns:cc="http://creativecommons.org/ns#" xmlns:dc="http://purl.org/dc/elements/1.1/" id="metadata2867">
    <rdf:RDF>
      <cc:Work rdf:about="">
        <dc:format>image/svg+xml</dc:format>
        <dc:type rdf:resource="http://purl.org/dc/dcmitype/StillImage"/>
        <dc:title/>
      </cc:Work>
    </rdf:RDF>
  </metadata>
  <g xmlns="http://www.w3.org/2000/svg" xmlns:inkscape="http://www.inkscape.org/namespaces/inkscape" inkscape:groupmode="layer" id="layer2" inkscape:label="background">
    <path d="m 32.7837,5.8154525 c 2.249331,2.6387316 2.62296,4.4010095 3.543825,5.3008945 1.47188,1.443572 4.298635,-0.06562 6.827245,3.608925 1.294497,1.884135 1.3813,3.21053 2.173849,5.066546 0.868028,2.024747 2.004015,2.70435 2.430485,5.666475 0.441561,3.055864 0.03774,6.97881 -1.841735,9.214468 -1.094474,1.298272 -2.102141,1.537307 -3.317384,2.404382 -5.24592,3.754217 -4.562818,3.2949 -10.567321,3.379263 0,0 -10.189914,1.363894 -10.189914,1.363894 C 17.740364,41.506278 16.672311,39.10189 14.294664,38.300428 10.422497,36.997468 7.4145829,37.292745 4.119843,33.379173 0.28164187,28.814124 0.49298941,20.546413 4.4972476,16.239142 6.8560246,13.698838 9.2487681,13.342633 10.441367,12.095913 11.426391,11.069481 12.249133,8.7213365 13.286994,7.1793444 15.426878,3.9969311 17.52147,2.6517881 20.710536,1.7706489 25.220518,0.99730831 29.364417,1.8175206 32.7837,5.8154525 z" id="Selection-0" style="fill:url(#linearGradient2998);fill-opacity:1;stroke:#000000;stroke-width:0.42057818"/>
  </g>
  <g xmlns="http://www.w3.org/2000/svg" xmlns:inkscape="http://www.inkscape.org/namespaces/inkscape" xmlns:sodipodi="http://sodipodi.sourceforge.net/DTD/sodipodi-0.dtd" inkscape:groupmode="layer" id="layer4" inkscape:label="sunborder" style="opacity:1">
    <path sodipodi:type="star" style="opacity:0.96000004999999999;fill:#ff8c00;fill-rule:nonzero;stroke:#ae0000;stroke-width:0.10000000000000001;stroke-linejoin:bevel;stroke-miterlimit:4;stroke-opacity:1;stroke-dasharray:none;fill-opacity:1;filter:url(#filter3687)" id="path3665" sodipodi:sides="48" sodipodi:cx="7.2478447" sodipodi:cy="6.8110294" sodipodi:r1="20.001562" sodipodi:r2="18.757921" sodipodi:arg1="0.79789751" sodipodi:arg2="0.86334736" inkscape:flatsided="false" inkscape:rounded="0" inkscape:randomized="0" d="m 21.213203,21.129941 -1.774641,-0.06247 -0.213827,1.762819 -1.751305,-0.293577 -0.442092,1.719828 -1.698002,-0.519656 -0.662793,1.64741 L 13.054897,24.647446 12.182744,26.19425 10.677097,25.252825 9.6105073,26.672558 8.2406219,25.54266 6.9978447,26.811029 5.7871601,25.511992 4.3894597,26.607295 3.358691,25.161345 1.8299825,26.064841 0.99676635,24.496719 l -1.63356001,0.69623 -0.62140694,-1.663463 -1.7104608,0.477051 -0.3989653,-1.730341 -1.7580953,0.24971 -0.1696972,-1.767614 -1.7756482,0.0181 0.062474,-1.774641 -1.7628193,-0.213827 0.2935771,-1.751305 -1.7198279,-0.442092 0.5196565,-1.698002 -1.6474095,-0.662793 0.736844,-1.615647 -1.546804,-0.872152 0.941425,-1.505647 -1.419733,-1.0665899 1.129898,-1.3698855 -1.268369,-1.2427771 1.299037,-1.2106847 -1.095303,-1.3977003 1.44595,-1.0307688 -0.903496,-1.5287085 1.568122,-0.83321611 -0.69623,-1.63355999 1.6634628,-0.6214069 -0.4770509,-1.7104609 1.7303413,-0.3989653 -0.2497097,-1.7580952 1.7676134,-0.1696972 -0.018096,-1.7756482 1.7746411,0.062474 0.2138275,-1.7628192 1.7513043,0.2935771 0.4420923,-1.7198277 1.69800211,0.519656 0.6627927,-1.64741 1.61564669,0.736845 0.8721526,-1.546805 1.5056471,0.941426 1.0665897,-1.419733 1.3698854,1.129897 1.2427771,-1.268368 1.2106847,1.299037 1.3977007,-1.095303 1.030768,1.44595 1.528709,-0.903496 0.833216,1.568122 1.63356,-0.69623 0.621407,1.6634625 1.710461,-0.4770505 0.398965,1.7303409 1.758095,-0.2497097 0.169698,1.7676134 1.775648,-0.018096 -0.06247,1.7746411 1.76282,0.2138275 -0.293578,1.7513043 1.719828,0.4420923 -0.519656,1.6980021 1.64741,0.66279274 -0.736845,1.61564666 1.546805,0.8721526 -0.941425,1.5056471 1.419732,1.0665897 -1.129897,1.3698854 1.268368,1.2427772 -1.299037,1.2106847 1.095303,1.3977003 -1.445949,1.0307686 0.903495,1.528709 -1.568121,0.833216 0.696229,1.63356 -1.663462,0.621407 0.477051,1.710461 -1.730342,0.398965 0.24971,1.758095 -1.767613,0.169697 0.01809,1.775648 z" transform="translate(20.8596, 18.0312)"/>
  </g>
  <g xmlns="http://www.w3.org/2000/svg" xmlns:inkscape="http://www.inkscape.org/namespaces/inkscape" xmlns:sodipodi="http://sodipodi.sourceforge.net/DTD/sodipodi-0.dtd" id="layer1" inkscape:label="Layer 1" inkscape:groupmode="layer">
    <path sodipodi:type="arc" style="fill:url(#radialGradient3659);fill-opacity:1;opacity:1" id="path2876" sodipodi:cx="9" sodipodi:cy="6.2857141" sodipodi:rx="17.714285" sodipodi:ry="17.714285" d="m 26.714285,6.2857141 a 17.714285,17.714285 0 1 1 -35.4285699,0 17.714285,17.714285 0 1 1 35.4285699,0 z" transform="translate(19.1429, 18.1429)"/>
    <path d="m 31.670886,21.395471 c 2.197855,1.441856 2.562936,2.4048 3.462728,2.896517 1.438193,0.788797 4.200261,-0.03586 6.671004,1.971988 1.264872,1.029532 1.349689,1.7543 2.1241,2.768466 0.848164,1.106362 1.958154,1.477711 2.374864,3.096277 0.431456,1.669787 0.03688,3.813364 -1.799587,5.034972 -1.069427,0.709403 -2.054034,0.840017 -3.241466,1.313805 -5.125868,2.05138 -4.458398,1.8004 -10.325489,1.846497 0,0 -9.956723,0.745259 -9.956723,0.745259 -4.008503,-0.171588 -5.052114,-1.485394 -7.37535,-1.92333 C 9.8214145,38.433958 6.8823372,38.595304 3.6629982,36.456849 -0.08736649,33.962413 0.11914328,29.444767 4.031766,27.091187 c 2.3047964,-1.388074 4.6427818,-1.582713 5.8080867,-2.263946 0.9624823,-0.560863 1.7663953,-1.843936 2.7805063,-2.686513 2.090912,-1.738934 4.137572,-2.473948 7.253656,-2.955421 4.406771,-0.422568 8.455839,0.02561 11.796871,2.210164 z" id="Selection" style="fill:url(#linearGradient3759);fill-opacity:1;stroke:#000000;stroke-width:0.30731449"/>
  </g>
  <g xmlns="http://www.w3.org/2000/svg" xmlns:inkscape="http://www.inkscape.org/namespaces/inkscape" inkscape:groupmode="layer" id="layer3" inkscape:label="sun"/>
  <g xmlns="http://www.w3.org/2000/svg" xmlns:inkscape="http://www.inkscape.org/namespaces/inkscape" inkscape:groupmode="layer" id="layer5" inkscape:label="foreground"/>
</g></svg>